<svg width="151" height="52" viewBox="0 0 151 52" fill="none" xmlns="http://www.w3.org/2000/svg">
	<g filter="url(#filter0_d_407_162)">
	<path d="M73 8H73.5V7.5H73V8ZM73 42.5H72.5V43H73V42.5ZM138.333 42.5C138.333 43.9728 139.527 45.1667 141 45.1667C142.473 45.1667 143.667 43.9728 143.667 42.5C143.667 41.0272 142.473 39.8333 141 39.8333C139.527 39.8333 138.333 41.0272 138.333 42.5ZM7 8.5H73V7.5H7V8.5ZM72.5 8V42.5H73.5V8H72.5ZM73 43H107V42H73V43ZM107 43H141V42H107V43Z" fill="#00D9FF"/>
	</g>
	<defs>
	<filter id="filter0_d_407_162" x="0.2" y="0.7" width="150.267" height="51.2666" filterUnits="userSpaceOnUse" color-interpolation-filters="sRGB">
	<feFlood flood-opacity="0" result="BackgroundImageFix"/>
	<feColorMatrix in="SourceAlpha" type="matrix" values="0 0 0 0 0 0 0 0 0 0 0 0 0 0 0 0 0 0 127 0" result="hardAlpha"/>
	<feOffset/>
	<feGaussianBlur stdDeviation="3.4"/>
	<feComposite in2="hardAlpha" operator="out"/>
	<feColorMatrix type="matrix" values="0 0 0 0 0.345098 0 0 0 0 0.92549 0 0 0 0 1 0 0 0 1 0"/>
	<feBlend mode="normal" in2="BackgroundImageFix" result="effect1_dropShadow_407_162"/>
	<feBlend mode="normal" in="SourceGraphic" in2="effect1_dropShadow_407_162" result="shape"/>
	</filter>
	</defs>
	</svg>
